<svg height="128" width="128" xmlns="http://www.w3.org/2000/svg"><rect x="2" y="2" width="124" height="124" rx="14" ry="14" fill="#363d52" stroke="#212532" stroke-width="4"/><g transform="scale(.101) translate(122 122)"><g fill="#fff"><path d="m105 673v33q407 354 814 0v-33z"/><path d="m105 673v33q407 354 814 0v-33z" fill="#478cbf" transform="matrix(1 0 0 -1 0 1346)"/><ellipse cx="512" cy="684" fill="#478cbf" rx="407" ry="171"/><ellipse cx="512" cy="684" fill="#32233a" rx="407" ry="134"/><ellipse cx="512" cy="692" fill="#478cbf" rx="363" ry="127"/><ellipse cx="512" cy="692" fill="#32233a" rx="363" ry="97"/><ellipse cx="512" cy="700" fill="#478cbf" rx="318" ry="92"/><ellipse cx="512" cy="700" fill="#32233a" rx="318" ry="70"/><ellipse cx="512" cy="708" fill="#478cbf" rx="274" ry="66"/><ellipse cx="512" cy="708" fill="#32233a" rx="274" ry="50"/><ellipse cx="512" cy="716" fill="#478cbf" rx="229" ry="45"/><ellipse cx="512" cy="716" fill="#32233a" rx="229" ry="34"/><ellipse cx="512" cy="724" fill="#478cbf" rx="184" ry="27"/><ellipse cx="512" cy="724" fill="#32233a" rx="217" ry="24"/><ellipse cx="512" cy="732" fill="#478cbf" rx="139" ry="14"/></g><ellipse cx="433" cy="737" fill="#cd482a" rx="40" ry="18"/><ellipse cx="591" cy="737" fill="#cd482a" rx="40" ry="18"/></g></svg>